<?xml version="1.0" encoding="UTF-8"?>
<svg version="1.1" xmlns="http://www.w3.org/2000/svg" width="500" height="500">
<path d="M0 0 C0.66 0 1.32 0 2 0 C2.03867187 1.47533203 2.03867187 1.47533203 2.078125 2.98046875 C3.23463398 34.69520492 13.0935109 65.98723715 33 91 C33.40661865 91.56783203 33.8132373 92.13566406 34.23217773 92.72070312 C44.7630041 107.33863648 58.46715271 119.93449948 74 129 C74.87527344 129.55300781 75.75054687 130.10601562 76.65234375 130.67578125 C79.06676572 132.19017558 81.51342765 133.60751948 84 135 C84.96164062 135.55171875 85.92328125 136.1034375 86.9140625 136.671875 C107.49815228 147.77451054 130.85080614 152.09646484 154 153 C154 153.66 154 154.32 154 155 C153.0884314 155.05945801 153.0884314 155.05945801 152.15844727 155.12011719 C139.08592484 156.01156545 126.60017268 157.34998556 114 161 C113.29633301 161.1954541 112.59266602 161.3909082 111.86767578 161.59228516 C94.48907112 166.50134131 78.13696849 174.74904741 64 186 C63.43216797 186.40661865 62.86433594 186.8132373 62.27929688 187.23217773 C47.66136352 197.7630041 35.06550052 211.46715271 26 227 C25.44699219 227.87527344 24.89398438 228.75054687 24.32421875 229.65234375 C22.80982442 232.06676572 21.39248052 234.51342765 20 237 C19.44828125 237.96164062 18.8965625 238.92328125 18.328125 239.9140625 C7.22548946 260.49815228 2.90353516 283.85080614 2 307 C1.34 307 0.68 307 0 307 C-0.05945801 306.0884314 -0.05945801 306.0884314 -0.12011719 305.15844727 C-1.01156545 292.08592484 -2.34998556 279.60017268 -6 267 C-6.1954541 266.29633301 -6.3909082 265.59266602 -6.59228516 264.86767578 C-11.50134131 247.48907112 -19.74904741 231.13696849 -31 217 C-31.40661865 216.43216797 -31.8132373 215.86433594 -32.23217773 215.27929688 C-42.7630041 200.66136352 -56.46715271 188.06550052 -72 179 C-72.87527344 178.44699219 -73.75054687 177.89398438 -74.65234375 177.32421875 C-77.06676572 175.80982442 -79.51342765 174.39248052 -82 173 C-82.96164063 172.44828125 -83.92328125 171.8965625 -84.9140625 171.328125 C-105.85475263 160.03314655 -129.47528095 155.85383836 -153 155 C-153 154.34 -153 153.68 -153 153 C-151.52466797 152.96132813 -151.52466797 152.96132813 -150.01953125 152.921875 C-118.30479508 151.76536602 -87.01276285 141.9064891 -62 122 C-61.43216797 121.59338135 -60.86433594 121.1867627 -60.27929688 120.76782227 C-45.66136352 110.2369959 -33.06550052 96.53284729 -24 81 C-23.44699219 80.12472656 -22.89398438 79.24945313 -22.32421875 78.34765625 C-20.80982442 75.93323428 -19.39248052 73.48657235 -18 71 C-17.44828125 70.03835937 -16.8965625 69.07671875 -16.328125 68.0859375 C-5.03314655 47.14524737 -0.85383836 23.52471905 0 0 Z " fill="#2A2A2A" transform="translate(249,96)"/>
<path d="M0 0 C0.33 0.99 0.66 1.98 1 3 C0.00390625 4.82421875 0.00390625 4.82421875 -1.4375 6.6875 C-1.91058594 7.31011719 -2.38367188 7.93273437 -2.87109375 8.57421875 C-3.24363281 9.04472656 -3.61617187 9.51523438 -4 10 C-4.66 9.67 -5.32 9.34 -6 9 C-4.02 6.03 -2.04 3.06 0 0 Z " fill="#6F6F6E" transform="translate(227,174)"/>
<path d="M0 0 C3 1 3 1 3 1 Z " fill="#FFFFFF" transform="translate(390,252)"/>
<path d="M0 0 C3 1 3 1 3 1 Z " fill="#FFFFFF" transform="translate(106,252)"/>
</svg>
